ffmpeg started on 2026-03-24 at 12:44:29
Report written to "D:\Convert\FFMetrics\reports\psnr_report-6.txt"
Log level: 32
Command line:
ffmpeg -hide_banner -nostdin -r 24000/1001 -i "F:\\\xc0\xed\xe8\xec\xe5\\LightFamily\\\xcc\xee\xe6\xe5\xf2 \xeb\xe8 \xf1\xf3\xf9\xe5\xf1\xf2\xe2\xee\xe2\xe0\xf2\xfc \xe4\xf0\xf3\xe6\xe1\xe0 \xec\xe5\xe6\xe4\xf3 \xec\xf3\xe6\xf7\xe8\xed\xee\xe9 \xe8 \xe6\xe5\xed\xf9\xe8\xed\xee\xe9 (\xcd\xe5\xf2, \xfd\xf2\xee \xed\xe5 \xf2\xe0\xea!)\\LightFamilyDUB_\xcc\xee\xe6\xe5\xf2_\xeb\xe8_\xf1\xf3\xf9\xe5\xf1\xf2\xe2\xee\xe2\xe0\xf2\xfc_\xe4\xf0\xf3\xe6\xe1\xe0_\xec\xe5\xe6\xe4\xf3_\xef\xe0\xf0\xed\xe5\xec_\xe8_\xe4\xe5\xe2\xf3\xf8\xea\xee\xe9_03_HEVC.mkv" -r 24000/1001 -i "F:\\\xc0\xed\xe8\xec\xe5\\LightFamily\\\xcc\xee\xe6\xe5\xf2 \xeb\xe8 \xf1\xf3\xf9\xe5\xf1\xf2\xe2\xee\xe2\xe0\xf2\xfc \xe4\xf0\xf3\xe6\xe1\xe0 \xec\xe5\xe6\xe4\xf3 \xec\xf3\xe6\xf7\xe8\xed\xee\xe9 \xe8 \xe6\xe5\xed\xf9\xe8\xed\xee\xe9 (\xcd\xe5\xf2, \xfd\xf2\xee \xed\xe5 \xf2\xe0\xea!)\\LightFamilyDUB_\xcc\xee\xe6\xe5\xf2_\xeb\xe8_\xf1\xf3\xf9\xe5\xf1\xf2\xe2\xee\xe2\xe0\xf2\xfc_\xe4\xf0\xf3\xe6\xe1\xe0_\xec\xe5\xe6\xe4\xf3_\xef\xe0\xf0\xed\xe5\xec_\xe8_\xe4\xe5\xe2\xf3\xf8\xea\xee\xe9_03.mp4" -lavfi "[0:v]settb=AVTB,setpts=PTS-STARTPTS,format=pix_fmts=yuv420p10le,fps=24000/1001,scale=1920:1080:flags=lanczos:param0=3:out_range=limited:out_color_matrix=bt709:out_chroma_loc=left,setsar=1/1,setdar=(1920/1080)*(1/1),colorspace=format=yuv420p10:range=tv:primaries=bt709:trc=bt709:space=bt709:fast=0[main];[1:v]settb=AVTB,setpts=PTS-STARTPTS,format=pix_fmts=yuv420p,fps=24000/1001,scale=1920:1080:flags=lanczos:param0=3:out_range=limited:out_color_matrix=bt709:out_chroma_loc=left,setsar=1/1,setdar=(1920/1080)*(1/1),colorspace=format=yuv420p:range=tv:primaries=bt709:trc=bt709:space=bt709:fast=0[ref];[main][ref]psnr=eof_action=endall:stats_file='D\\:/Convert/FFMetrics/logs/psnr_logfile-6.txt'" -f null -
Input #0, matroska,webm, from 'F:\Аниме\LightFamily\Может ли существовать дружба между мужчиной и женщиной (Нет, это не так!)\LightFamilyDUB_Может_ли_существовать_дружба_между_парнем_и_девушкой_03_HEVC.mkv':
  Metadata:
    COMPATIBLE_BRANDS: mp42mp41
    MAJOR_BRAND     : mp42
    MINOR_VERSION   : 0
    ENCODER         : Lavf61.7.100
  Duration: 00:23:40.07, start: -0.021000, bitrate: 886 kb/s
  Stream #0:0(eng): Video: hevc (Main 10), yuv420p10le(tv, bt709, progressive), 1920x1080 [SAR 1:1 DAR 16:9], 23.98 fps, 23.98 tbr, 1k tbn (default)
      Metadata:
        HANDLER_NAME    : Mainconcept Video Media Handler
        VENDOR_ID       : [0][0][0][0]
        ENCODER         : Lavc61.19.100 libx265
        BPS             : 690156
        DURATION        : 00:23:40.043708333
        NUMBER_OF_FRAMES: 34047
        NUMBER_OF_BYTES : 122506520
        _STATISTICS_WRITING_APP: mkvpropedit v94.0 ('Initiate') 64-bit
        _STATISTICS_WRITING_DATE_UTC: 2026-03-23 13:04:52
        _STATISTICS_TAGS: BPS DURATION NUMBER_OF_FRAMES NUMBER_OF_BYTES
  Stream #0:1(eng): Audio: aac (LC), 48000 Hz, stereo, fltp (default)
      Metadata:
        HANDLER_NAME    : #Mainconcept MP4 Sound Media Handler
        VENDOR_ID       : [0][0][0][0]
        ENCODER         : Lavc61.19.100 aac
        BPS             : 192574
        DURATION        : 00:23:40.053000000
        NUMBER_OF_FRAMES: 66566
        NUMBER_OF_BYTES : 34183205
        _STATISTICS_WRITING_APP: mkvpropedit v94.0 ('Initiate') 64-bit
        _STATISTICS_WRITING_DATE_UTC: 2026-03-23 13:04:52
        _STATISTICS_TAGS: BPS DURATION NUMBER_OF_FRAMES NUMBER_OF_BYTES
Input #1, mov,mp4,m4a,3gp,3g2,mj2, from 'F:\Аниме\LightFamily\Может ли существовать дружба между мужчиной и женщиной (Нет, это не так!)\LightFamilyDUB_Может_ли_существовать_дружба_между_парнем_и_девушкой_03.mp4':
  Metadata:
    major_brand     : mp42
    minor_version   : 0
    compatible_brands: mp42mp41
    creation_time   : 2025-04-26T20:38:05.000000Z
  Duration: 00:23:40.04, start: 0.000000, bitrate: 8387 kb/s
  Stream #1:0[0x1](eng): Video: h264 (Main) (avc1 / 0x31637661), yuv420p(tv, bt709, progressive), 1920x1080, 8002 kb/s, 23.98 fps, 23.98 tbr, 24k tbn (default)
      Metadata:
        creation_time   : 2025-04-26T20:38:05.000000Z
        handler_name    : Mainconcept Video Media Handler
        vendor_id       : [0][0][0][0]
        encoder         : AVC Coding
  Stream #1:1[0x2](eng): Audio: aac (LC) (mp4a / 0x6134706D), 48000 Hz, stereo, fltp, 381 kb/s (default)
      Metadata:
        creation_time   : 2025-04-26T20:38:05.000000Z
        handler_name    : #Mainconcept MP4 Sound Media Handler
        vendor_id       : [0][0][0][0]
Stream mapping:
  Stream #0:0 (hevc) -> settb:default
  Stream #1:0 (h264) -> settb:default
  psnr:default -> Stream #0:0 (wrapped_avframe)
  Stream #0:1 -> #0:1 (aac (native) -> pcm_s16le (native))
Output #0, null, to 'pipe:':
  Metadata:
    COMPATIBLE_BRANDS: mp42mp41
    MAJOR_BRAND     : mp42
    MINOR_VERSION   : 0
    encoder         : Lavf61.7.100
  Stream #0:0: Video: wrapped_avframe, yuv420p10le(tv, bt709, progressive), 1920x1080 [SAR 1:1 DAR 16:9], q=2-31, 200 kb/s, 23.98 fps, 23.98 tbn
      Metadata:
        encoder         : Lavc61.19.100 wrapped_avframe
  Stream #0:1(eng): Audio: pcm_s16le, 48000 Hz, stereo, s16, 1536 kb/s (default)
      Metadata:
        HANDLER_NAME    : #Mainconcept MP4 Sound Media Handler
        VENDOR_ID       : [0][0][0][0]
        _STATISTICS_TAGS: BPS DURATION NUMBER_OF_FRAMES NUMBER_OF_BYTES
        BPS             : 192574
        DURATION        : 00:23:40.053000000
        NUMBER_OF_FRAMES: 66566
        NUMBER_OF_BYTES : 34183205
        _STATISTICS_WRITING_APP: mkvpropedit v94.0 ('Initiate') 64-bit
        _STATISTICS_WRITING_DATE_UTC: 2026-03-23 13:04:52
        encoder         : Lavc61.19.100 pcm_s16le
frame=  139 fps=0.0 q=-0.0 size=N/A time=00:00:05.79 bitrate=N/A speed=11.3x    frame=  317 fps=309 q=-0.0 size=N/A time=00:00:13.22 bitrate=N/A speed=12.9x    frame=  495 fps=322 q=-0.0 size=N/A time=00:00:20.64 bitrate=N/A speed=13.4x    frame=  684 fps=332 q=-0.0 size=N/A time=00:00:28.52 bitrate=N/A speed=13.8x    frame=  871 fps=339 q=-0.0 size=N/A time=00:00:36.32 bitrate=N/A speed=14.1x    frame= 1052 fps=341 q=-0.0 size=N/A time=00:00:43.87 bitrate=N/A speed=14.2x    frame= 1250 fps=346 q=-0.0 size=N/A time=00:00:52.13 bitrate=N/A speed=14.4x    frame= 1431 fps=347 q=-0.0 size=N/A time=00:00:59.68 bitrate=N/A speed=14.5x    frame= 1619 fps=350 q=-0.0 size=N/A time=00:01:07.52 bitrate=N/A speed=14.6x    frame= 1808 fps=350 q=-0.0 size=N/A time=00:01:15.40 bitrate=N/A speed=14.6x    frame= 1987 fps=350 q=-0.0 size=N/A time=00:01:22.87 bitrate=N/A speed=14.6x    frame= 2150 fps=348 q=-0.0 size=N/A time=00:01:29.67 bitrate=N/A speed=14.5x    frame= 2310 fps=345 q=-0.0 size=N/A time=00:01:36.34 bitrate=N/A speed=14.4x    frame= 2460 fps=341 q=-0.0 size=N/A time=00:01:42.60 bitrate=N/A speed=14.2x    frame= 2644 fps=342 q=-0.0 size=N/A time=00:01:50.27 bitrate=N/A speed=14.3x    frame= 2824 fps=343 q=-0.0 size=N/A time=00:01:57.78 bitrate=N/A speed=14.3x    frame= 3000 fps=342 q=-0.0 size=N/A time=00:02:05.12 bitrate=N/A speed=14.3x    frame= 3172 fps=342 q=-0.0 size=N/A time=00:02:12.29 bitrate=N/A speed=14.3x    frame= 3330 fps=340 q=-0.0 size=N/A time=00:02:18.88 bitrate=N/A speed=14.2x    frame= 3503 fps=340 q=-0.0 size=N/A time=00:02:26.10 bitrate=N/A speed=14.2x    frame= 3663 fps=338 q=-0.0 size=N/A time=00:02:32.77 bitrate=N/A speed=14.1x    frame= 3833 fps=338 q=-0.0 size=N/A time=00:02:39.86 bitrate=N/A speed=14.1x    frame= 4001 fps=338 q=-0.0 size=N/A time=00:02:46.87 bitrate=N/A speed=14.1x    frame= 4178 fps=338 q=-0.0 size=N/A time=00:02:54.25 bitrate=N/A speed=14.1x    frame= 4353 fps=338 q=-0.0 size=N/A time=00:03:01.55 bitrate=N/A speed=14.1x    frame= 4538 fps=339 q=-0.0 size=N/A time=00:03:09.27 bitrate=N/A speed=14.1x    frame= 4732 fps=340 q=-0.0 size=N/A time=00:03:17.36 bitrate=N/A speed=14.2x    frame= 4909 fps=340 q=-0.0 size=N/A time=00:03:24.74 bitrate=N/A speed=14.2x    frame= 5105 fps=342 q=-0.0 size=N/A time=00:03:32.92 bitrate=N/A speed=14.2x    frame= 5298 fps=342 q=-0.0 size=N/A time=00:03:40.97 bitrate=N/A speed=14.3x    frame= 5485 fps=343 q=-0.0 size=N/A time=00:03:48.77 bitrate=N/A speed=14.3x    frame= 5676 fps=344 q=-0.0 size=N/A time=00:03:56.73 bitrate=N/A speed=14.4x    frame= 5858 fps=344 q=-0.0 size=N/A time=00:04:04.32 bitrate=N/A speed=14.4x    frame= 6041 fps=345 q=-0.0 size=N/A time=00:04:11.96 bitrate=N/A speed=14.4x    frame= 6239 fps=346 q=-0.0 size=N/A time=00:04:20.21 bitrate=N/A speed=14.4x    frame= 6424 fps=346 q=-0.0 size=N/A time=00:04:27.93 bitrate=N/A speed=14.4x    frame= 6613 fps=347 q=-0.0 size=N/A time=00:04:35.81 bitrate=N/A speed=14.5x    frame= 6806 fps=347 q=-0.0 size=N/A time=00:04:43.86 bitrate=N/A speed=14.5x    frame= 6995 fps=348 q=-0.0 size=N/A time=00:04:51.74 bitrate=N/A speed=14.5x    frame= 7174 fps=348 q=-0.0 size=N/A time=00:04:59.21 bitrate=N/A speed=14.5x    frame= 7351 fps=348 q=-0.0 size=N/A time=00:05:06.59 bitrate=N/A speed=14.5x    frame= 7534 fps=348 q=-0.0 size=N/A time=00:05:14.23 bitrate=N/A speed=14.5x    frame= 7714 fps=348 q=-0.0 size=N/A time=00:05:21.73 bitrate=N/A speed=14.5x    frame= 7900 fps=348 q=-0.0 size=N/A time=00:05:29.49 bitrate=N/A speed=14.5x    frame= 8098 fps=349 q=-0.0 size=N/A time=00:05:37.75 bitrate=N/A speed=14.6x    frame= 8278 fps=349 q=-0.0 size=N/A time=00:05:45.26 bitrate=N/A speed=14.6x    frame= 8460 fps=349 q=-0.0 size=N/A time=00:05:52.85 bitrate=N/A speed=14.6x    frame= 8657 fps=350 q=-0.0 size=N/A time=00:06:01.06 bitrate=N/A speed=14.6x    frame= 8851 fps=350 q=-0.0 size=N/A time=00:06:09.16 bitrate=N/A speed=14.6x    frame= 9037 fps=351 q=-0.0 size=N/A time=00:06:16.91 bitrate=N/A speed=14.6x    frame= 9224 fps=351 q=-0.0 size=N/A time=00:06:24.71 bitrate=N/A speed=14.6x    frame= 9425 fps=351 q=-0.0 size=N/A time=00:06:33.10 bitrate=N/A speed=14.7x    frame= 9624 fps=352 q=-0.0 size=N/A time=00:06:41.40 bitrate=N/A speed=14.7x    frame= 9814 fps=352 q=-0.0 size=N/A time=00:06:49.32 bitrate=N/A speed=14.7x    frame= 9996 fps=352 q=-0.0 size=N/A time=00:06:56.91 bitrate=N/A speed=14.7x    frame=10192 fps=353 q=-0.0 size=N/A time=00:07:05.09 bitrate=N/A speed=14.7x    frame=10388 fps=353 q=-0.0 size=N/A time=00:07:13.26 bitrate=N/A speed=14.7x    frame=10574 fps=353 q=-0.0 size=N/A time=00:07:21.02 bitrate=N/A speed=14.7x    frame=10767 fps=354 q=-0.0 size=N/A time=00:07:29.07 bitrate=N/A speed=14.8x    frame=10953 fps=354 q=-0.0 size=N/A time=00:07:36.83 bitrate=N/A speed=14.8x    frame=11138 fps=354 q=-0.0 size=N/A time=00:07:44.54 bitrate=N/A speed=14.8x    frame=11327 fps=354 q=-0.0 size=N/A time=00:07:52.43 bitrate=N/A speed=14.8x    frame=11508 fps=354 q=-0.0 size=N/A time=00:07:59.97 bitrate=N/A speed=14.8x    frame=11696 fps=354 q=-0.0 size=N/A time=00:08:07.82 bitrate=N/A speed=14.8x    frame=11888 fps=355 q=-0.0 size=N/A time=00:08:15.82 bitrate=N/A speed=14.8x    frame=12072 fps=355 q=-0.0 size=N/A time=00:08:23.50 bitrate=N/A speed=14.8x    frame=12251 fps=355 q=-0.0 size=N/A time=00:08:30.96 bitrate=N/A speed=14.8x    frame=12445 fps=355 q=-0.0 size=N/A time=00:08:39.06 bitrate=N/A speed=14.8x    frame=12621 fps=355 q=-0.0 size=N/A time=00:08:46.40 bitrate=N/A speed=14.8x    frame=12797 fps=354 q=-0.0 size=N/A time=00:08:53.74 bitrate=N/A speed=14.8x    frame=12977 fps=354 q=-0.0 size=N/A time=00:09:01.24 bitrate=N/A speed=14.8x    frame=13156 fps=354 q=-0.0 size=N/A time=00:09:08.71 bitrate=N/A speed=14.8x    frame=13344 fps=354 q=-0.0 size=N/A time=00:09:16.55 bitrate=N/A speed=14.8x    frame=13534 fps=355 q=-0.0 size=N/A time=00:09:24.48 bitrate=N/A speed=14.8x    frame=13718 fps=355 q=-0.0 size=N/A time=00:09:32.15 bitrate=N/A speed=14.8x    frame=13898 fps=355 q=-0.0 size=N/A time=00:09:39.66 bitrate=N/A speed=14.8x    frame=14092 fps=355 q=-0.0 size=N/A time=00:09:47.75 bitrate=N/A speed=14.8x    frame=14285 fps=355 q=-0.0 size=N/A time=00:09:55.80 bitrate=N/A speed=14.8x    frame=14486 fps=356 q=-0.0 size=N/A time=00:10:04.18 bitrate=N/A speed=14.8x    frame=14682 fps=356 q=-0.0 size=N/A time=00:10:12.36 bitrate=N/A speed=14.8x    frame=14884 fps=356 q=-0.0 size=N/A time=00:10:20.78 bitrate=N/A speed=14.9x    frame=15075 fps=356 q=-0.0 size=N/A time=00:10:28.75 bitrate=N/A speed=14.9x    frame=15269 fps=357 q=-0.0 size=N/A time=00:10:36.84 bitrate=N/A speed=14.9x    frame=15451 fps=357 q=-0.0 size=N/A time=00:10:44.43 bitrate=N/A speed=14.9x    frame=15646 fps=357 q=-0.0 size=N/A time=00:10:52.56 bitrate=N/A speed=14.9x    frame=15828 fps=357 q=-0.0 size=N/A time=00:11:00.15 bitrate=N/A speed=14.9x    frame=15986 fps=356 q=-0.0 size=N/A time=00:11:06.74 bitrate=N/A speed=14.9x    frame=16173 fps=356 q=-0.0 size=N/A time=00:11:14.54 bitrate=N/A speed=14.9x    frame=16368 fps=357 q=-0.0 size=N/A time=00:11:22.68 bitrate=N/A speed=14.9x    frame=16559 fps=357 q=-0.0 size=N/A time=00:11:30.64 bitrate=N/A speed=14.9x    frame=16743 fps=357 q=-0.0 size=N/A time=00:11:38.32 bitrate=N/A speed=14.9x    frame=16940 fps=357 q=-0.0 size=N/A time=00:11:46.53 bitrate=N/A speed=14.9x    frame=17129 fps=357 q=-0.0 size=N/A time=00:11:54.42 bitrate=N/A speed=14.9x    frame=17323 fps=357 q=-0.0 size=N/A time=00:12:02.51 bitrate=N/A speed=14.9x    frame=17509 fps=357 q=-0.0 size=N/A time=00:12:10.27 bitrate=N/A speed=14.9x    frame=17699 fps=357 q=-0.0 size=N/A time=00:12:18.19 bitrate=N/A speed=14.9x    frame=17885 fps=358 q=-0.0 size=N/A time=00:12:25.95 bitrate=N/A speed=14.9x    frame=18071 fps=358 q=-0.0 size=N/A time=00:12:33.71 bitrate=N/A speed=14.9x    frame=18258 fps=358 q=-0.0 size=N/A time=00:12:41.51 bitrate=N/A speed=14.9x    frame=18452 fps=358 q=-0.0 size=N/A time=00:12:49.60 bitrate=N/A speed=14.9x    frame=18644 fps=358 q=-0.0 size=N/A time=00:12:57.61 bitrate=N/A speed=14.9x    frame=18836 fps=358 q=-0.0 size=N/A time=00:13:05.61 bitrate=N/A speed=14.9x    frame=19031 fps=358 q=-0.0 size=N/A time=00:13:13.75 bitrate=N/A speed=14.9x    frame=19210 fps=358 q=-0.0 size=N/A time=00:13:21.21 bitrate=N/A speed=14.9x    frame=19404 fps=358 q=-0.0 size=N/A time=00:13:29.30 bitrate=N/A speed=14.9x    frame=19589 fps=358 q=-0.0 size=N/A time=00:13:37.02 bitrate=N/A speed=14.9x    frame=19770 fps=358 q=-0.0 size=N/A time=00:13:44.57 bitrate=N/A speed=14.9x    frame=19959 fps=358 q=-0.0 size=N/A time=00:13:52.45 bitrate=N/A speed=14.9x    frame=20154 fps=358 q=-0.0 size=N/A time=00:14:00.58 bitrate=N/A speed=14.9x    frame=20340 fps=358 q=-0.0 size=N/A time=00:14:08.34 bitrate=N/A speed=14.9x    frame=20529 fps=359 q=-0.0 size=N/A time=00:14:16.23 bitrate=N/A speed=  15x    frame=20720 fps=359 q=-0.0 size=N/A time=00:14:24.19 bitrate=N/A speed=  15x    frame=20909 fps=359 q=-0.0 size=N/A time=00:14:32.07 bitrate=N/A speed=  15x    frame=21089 fps=359 q=-0.0 size=N/A time=00:14:39.58 bitrate=N/A speed=  15x    frame=21282 fps=359 q=-0.0 size=N/A time=00:14:47.63 bitrate=N/A speed=  15x    frame=21478 fps=359 q=-0.0 size=N/A time=00:14:55.81 bitrate=N/A speed=  15x    frame=21677 fps=359 q=-0.0 size=N/A time=00:15:04.11 bitrate=N/A speed=  15x    frame=21867 fps=359 q=-0.0 size=N/A time=00:15:12.03 bitrate=N/A speed=  15x    frame=22050 fps=359 q=-0.0 size=N/A time=00:15:19.66 bitrate=N/A speed=  15x    frame=22233 fps=359 q=-0.0 size=N/A time=00:15:27.30 bitrate=N/A speed=  15x    frame=22424 fps=359 q=-0.0 size=N/A time=00:15:35.26 bitrate=N/A speed=  15x    frame=22603 fps=359 q=-0.0 size=N/A time=00:15:42.73 bitrate=N/A speed=  15x    frame=22785 fps=359 q=-0.0 size=N/A time=00:15:50.32 bitrate=N/A speed=  15x    frame=22966 fps=359 q=-0.0 size=N/A time=00:15:57.87 bitrate=N/A speed=  15x    frame=23148 fps=359 q=-0.0 size=N/A time=00:16:05.46 bitrate=N/A speed=  15x    frame=23340 fps=359 q=-0.0 size=N/A time=00:16:13.47 bitrate=N/A speed=  15x    frame=23526 fps=359 q=-0.0 size=N/A time=00:16:21.23 bitrate=N/A speed=  15x    frame=23712 fps=359 q=-0.0 size=N/A time=00:16:28.98 bitrate=N/A speed=  15x    frame=23906 fps=359 q=-0.0 size=N/A time=00:16:37.07 bitrate=N/A speed=  15x    frame=24094 fps=359 q=-0.0 size=N/A time=00:16:44.92 bitrate=N/A speed=  15x    frame=24282 fps=359 q=-0.0 size=N/A time=00:16:52.76 bitrate=N/A speed=  15x    frame=24459 fps=359 q=-0.0 size=N/A time=00:17:00.14 bitrate=N/A speed=  15x    frame=24647 fps=359 q=-0.0 size=N/A time=00:17:07.98 bitrate=N/A speed=  15x    frame=24831 fps=359 q=-0.0 size=N/A time=00:17:15.65 bitrate=N/A speed=  15x    frame=25024 fps=359 q=-0.0 size=N/A time=00:17:23.70 bitrate=N/A speed=  15x    frame=25212 fps=359 q=-0.0 size=N/A time=00:17:31.55 bitrate=N/A speed=  15x    frame=25403 fps=359 q=-0.0 size=N/A time=00:17:39.51 bitrate=N/A speed=  15x    frame=25590 fps=359 q=-0.0 size=N/A time=00:17:47.31 bitrate=N/A speed=  15x    frame=25773 fps=359 q=-0.0 size=N/A time=00:17:54.94 bitrate=N/A speed=  15x    frame=25961 fps=359 q=-0.0 size=N/A time=00:18:02.79 bitrate=N/A speed=  15x    frame=26164 fps=360 q=-0.0 size=N/A time=00:18:11.25 bitrate=N/A speed=  15x    frame=26358 fps=360 q=-0.0 size=N/A time=00:18:19.34 bitrate=N/A speed=  15x    frame=26549 fps=360 q=-0.0 size=N/A time=00:18:27.31 bitrate=N/A speed=  15x    frame=26737 fps=360 q=-0.0 size=N/A time=00:18:35.15 bitrate=N/A speed=  15x    frame=26934 fps=360 q=-0.0 size=N/A time=00:18:43.37 bitrate=N/A speed=  15x    frame=27124 fps=360 q=-0.0 size=N/A time=00:18:51.29 bitrate=N/A speed=  15x    frame=27316 fps=360 q=-0.0 size=N/A time=00:18:59.30 bitrate=N/A speed=  15x    frame=27504 fps=360 q=-0.0 size=N/A time=00:19:07.14 bitrate=N/A speed=  15x    frame=27692 fps=360 q=-0.0 size=N/A time=00:19:14.98 bitrate=N/A speed=  15x    frame=27880 fps=360 q=-0.0 size=N/A time=00:19:22.82 bitrate=N/A speed=  15x    frame=28075 fps=360 q=-0.0 size=N/A time=00:19:30.96 bitrate=N/A speed=  15x    frame=28266 fps=360 q=-0.0 size=N/A time=00:19:38.92 bitrate=N/A speed=  15x    frame=28458 fps=361 q=-0.0 size=N/A time=00:19:46.93 bitrate=N/A speed=  15x    frame=28654 fps=361 q=-0.0 size=N/A time=00:19:55.11 bitrate=N/A speed=  15x    frame=28848 fps=361 q=-0.0 size=N/A time=00:20:03.20 bitrate=N/A speed=  15x    frame=29040 fps=361 q=-0.0 size=N/A time=00:20:11.21 bitrate=N/A speed=  15x    frame=29233 fps=361 q=-0.0 size=N/A time=00:20:19.25 bitrate=N/A speed=15.1x    frame=29429 fps=361 q=-0.0 size=N/A time=00:20:27.43 bitrate=N/A speed=15.1x    frame=29621 fps=361 q=-0.0 size=N/A time=00:20:35.44 bitrate=N/A speed=15.1x    frame=29817 fps=361 q=-0.0 size=N/A time=00:20:43.61 bitrate=N/A speed=15.1x    frame=30009 fps=361 q=-0.0 size=N/A time=00:20:51.62 bitrate=N/A speed=15.1x    frame=30190 fps=361 q=-0.0 size=N/A time=00:20:59.17 bitrate=N/A speed=15.1x    frame=30388 fps=361 q=-0.0 size=N/A time=00:21:07.43 bitrate=N/A speed=15.1x    frame=30580 fps=361 q=-0.0 size=N/A time=00:21:15.44 bitrate=N/A speed=15.1x    frame=30771 fps=362 q=-0.0 size=N/A time=00:21:23.40 bitrate=N/A speed=15.1x    frame=30963 fps=362 q=-0.0 size=N/A time=00:21:31.41 bitrate=N/A speed=15.1x    frame=31155 fps=362 q=-0.0 size=N/A time=00:21:39.42 bitrate=N/A speed=15.1x    frame=31341 fps=362 q=-0.0 size=N/A time=00:21:47.18 bitrate=N/A speed=15.1x    frame=31538 fps=362 q=-0.0 size=N/A time=00:21:55.39 bitrate=N/A speed=15.1x    frame=31671 fps=361 q=-0.0 size=N/A time=00:22:00.94 bitrate=N/A speed=15.1x    frame=31862 fps=361 q=-0.0 size=N/A time=00:22:08.91 bitrate=N/A speed=15.1x    frame=32037 fps=361 q=-0.0 size=N/A time=00:22:16.20 bitrate=N/A speed=15.1x    frame=32223 fps=361 q=-0.0 size=N/A time=00:22:23.96 bitrate=N/A speed=15.1x    frame=32380 fps=361 q=-0.0 size=N/A time=00:22:30.51 bitrate=N/A speed=  15x    frame=32569 fps=361 q=-0.0 size=N/A time=00:22:38.39 bitrate=N/A speed=  15x    frame=32721 fps=360 q=-0.0 size=N/A time=00:22:44.73 bitrate=N/A speed=  15x    frame=32889 fps=360 q=-0.0 size=N/A time=00:22:51.74 bitrate=N/A speed=  15x    frame=33070 fps=360 q=-0.0 size=N/A time=00:22:59.29 bitrate=N/A speed=  15x    frame=33235 fps=360 q=-0.0 size=N/A time=00:23:06.17 bitrate=N/A speed=  15x    frame=33422 fps=360 q=-0.0 size=N/A time=00:23:13.97 bitrate=N/A speed=  15x    frame=33608 fps=360 q=-0.0 size=N/A time=00:23:21.73 bitrate=N/A speed=  15x    frame=33784 fps=360 q=-0.0 size=N/A time=00:23:29.07 bitrate=N/A speed=  15x    frame=33973 fps=360 q=-0.0 size=N/A time=00:23:36.95 bitrate=N/A speed=  15x    [Parsed_psnr_16 @ 000002061ddc4a00] PSNR y:48.749424 u:50.657087 v:50.615611 average:49.292099 min:40.654360 max:73.287086
[out#0/null @ 00000206175b3a00] video:14630KiB audio:266264KiB subtitle:0KiB other streams:0KiB global headers:0KiB muxing overhead: unknown
frame=34047 fps=360 q=-0.0 Lsize=N/A time=00:23:40.04 bitrate=N/A speed=  15x    
